<mxfile host="Electron" modified="2024-06-14T22:18:59.374Z" agent="Mozilla/5.0 (X11; Linux x86_64) AppleWebKit/537.36 (KHTML, like Gecko) draw.io/24.5.3 Chrome/124.0.6367.207 Electron/30.0.6 Safari/537.36" etag="1Fwc04Av2Wiy-YvzIYoy" version="24.5.3" type="device" pages="2">
  <diagram id="C5RBs43oDa-KdzZeNtuy" name="create new tests">
    <mxGraphModel dx="4780" dy="2810" grid="1" gridSize="20" guides="1" tooltips="1" connect="1" arrows="1" fold="1" page="1" pageScale="1" pageWidth="1169" pageHeight="827" math="0" shadow="0">
      <root>
        <mxCell id="WIyWlLk6GJQsqaUBKTNV-0" />
        <mxCell id="WIyWlLk6GJQsqaUBKTNV-1" parent="WIyWlLk6GJQsqaUBKTNV-0" />
        <mxCell id="_3QWsjHC50eAeNGb1wIy-6" value="" style="rounded=1;whiteSpace=wrap;html=1;" vertex="1" parent="WIyWlLk6GJQsqaUBKTNV-1">
          <mxGeometry x="440" y="36" width="160" height="280" as="geometry" />
        </mxCell>
        <mxCell id="_3QWsjHC50eAeNGb1wIy-8" value="KANAL1" style="rounded=1;whiteSpace=wrap;html=1;fillColor=#d5e8d4;strokeColor=#82b366;" vertex="1" parent="WIyWlLk6GJQsqaUBKTNV-1">
          <mxGeometry x="460" y="195" width="120" height="20" as="geometry" />
        </mxCell>
        <mxCell id="_3QWsjHC50eAeNGb1wIy-9" value="KANAL2" style="rounded=1;whiteSpace=wrap;html=1;fillColor=#d5e8d4;strokeColor=#82b366;" vertex="1" parent="WIyWlLk6GJQsqaUBKTNV-1">
          <mxGeometry x="460" y="219" width="120" height="20" as="geometry" />
        </mxCell>
        <mxCell id="_3QWsjHC50eAeNGb1wIy-10" value="KANAL3" style="rounded=1;whiteSpace=wrap;html=1;fillColor=#d5e8d4;strokeColor=#82b366;" vertex="1" parent="WIyWlLk6GJQsqaUBKTNV-1">
          <mxGeometry x="460" y="243" width="120" height="20" as="geometry" />
        </mxCell>
        <mxCell id="_3QWsjHC50eAeNGb1wIy-13" value="|" style="rounded=1;whiteSpace=wrap;html=1;fillColor=#f5f5f5;strokeColor=#666666;fontColor=#333333;glass=0;shadow=0;align=right;fontStyle=0" vertex="1" parent="WIyWlLk6GJQsqaUBKTNV-1">
          <mxGeometry x="440" y="276" width="160" height="40" as="geometry" />
        </mxCell>
        <mxCell id="_3QWsjHC50eAeNGb1wIy-16" value="" style="rounded=1;whiteSpace=wrap;html=1;" vertex="1" parent="WIyWlLk6GJQsqaUBKTNV-1">
          <mxGeometry x="840" y="36" width="160" height="280" as="geometry" />
        </mxCell>
        <mxCell id="_3QWsjHC50eAeNGb1wIy-17" value="&lt;font style=&quot;font-size: 6px;&quot;&gt;instruction&lt;/font&gt;" style="rounded=1;whiteSpace=wrap;html=1;spacingBottom=10;spacingTop=10;fillColor=#fff2cc;strokeColor=#d6b656;" vertex="1" parent="WIyWlLk6GJQsqaUBKTNV-1">
          <mxGeometry x="860" y="234" width="60" height="20" as="geometry" />
        </mxCell>
        <mxCell id="_3QWsjHC50eAeNGb1wIy-18" value="&lt;font style=&quot;font-size: 6px;&quot;&gt;newquiz&lt;/font&gt;" style="rounded=1;whiteSpace=wrap;html=1;spacingBottom=10;spacingTop=10;fillColor=#fff2cc;strokeColor=#d6b656;" vertex="1" parent="WIyWlLk6GJQsqaUBKTNV-1">
          <mxGeometry x="925" y="234" width="60" height="20" as="geometry" />
        </mxCell>
        <mxCell id="_3QWsjHC50eAeNGb1wIy-19" value="&lt;font style=&quot;font-size: 6px;&quot;&gt;tests&lt;/font&gt;" style="rounded=1;whiteSpace=wrap;html=1;spacingTop=0;spacingBottom=10;spacingRight=0;verticalAlign=top;fillColor=#fff2cc;strokeColor=#d6b656;" vertex="1" parent="WIyWlLk6GJQsqaUBKTNV-1">
          <mxGeometry x="860" y="257" width="60" height="20" as="geometry" />
        </mxCell>
        <mxCell id="_3QWsjHC50eAeNGb1wIy-20" value="&lt;font style=&quot;font-size: 6px;&quot;&gt;change language&lt;/font&gt;" style="rounded=1;whiteSpace=wrap;html=1;fillColor=#fff2cc;strokeColor=#d6b656;" vertex="1" parent="WIyWlLk6GJQsqaUBKTNV-1">
          <mxGeometry x="925" y="256" width="63" height="21" as="geometry" />
        </mxCell>
        <mxCell id="_3QWsjHC50eAeNGb1wIy-23" value="" style="rounded=1;whiteSpace=wrap;html=1;" vertex="1" parent="WIyWlLk6GJQsqaUBKTNV-1">
          <mxGeometry x="640" y="36" width="160" height="280" as="geometry" />
        </mxCell>
        <mxCell id="_3QWsjHC50eAeNGb1wIy-24" value="Uzbek" style="rounded=1;whiteSpace=wrap;html=1;fillColor=#d5e8d4;strokeColor=#82b366;" vertex="1" parent="WIyWlLk6GJQsqaUBKTNV-1">
          <mxGeometry x="460" y="199" width="120" height="30" as="geometry" />
        </mxCell>
        <mxCell id="_3QWsjHC50eAeNGb1wIy-25" value="Russian" style="rounded=1;whiteSpace=wrap;html=1;fillColor=#dae8fc;strokeColor=#6c8ebf;" vertex="1" parent="WIyWlLk6GJQsqaUBKTNV-1">
          <mxGeometry x="660" y="228" width="120" height="30" as="geometry" />
        </mxCell>
        <mxCell id="_3QWsjHC50eAeNGb1wIy-27" value="English" style="rounded=1;whiteSpace=wrap;html=1;fillColor=#fff2cc;strokeColor=#d6b656;" vertex="1" parent="WIyWlLk6GJQsqaUBKTNV-1">
          <mxGeometry x="660" y="261" width="120" height="30" as="geometry" />
        </mxCell>
        <mxCell id="_3QWsjHC50eAeNGb1wIy-34" value="instruction" style="shape=ext;double=1;rounded=1;whiteSpace=wrap;html=1;fillColor=#f8cecc;strokeColor=#b85450;" vertex="1" parent="WIyWlLk6GJQsqaUBKTNV-1">
          <mxGeometry x="10" y="460" width="110" height="80" as="geometry" />
        </mxCell>
        <mxCell id="_3QWsjHC50eAeNGb1wIy-36" value="" style="verticalLabelPosition=bottom;verticalAlign=top;html=1;strokeWidth=2;shape=mxgraph.arrows2.arrow;dy=0.6;dx=40;notch=0;fillColor=#d5e8d4;strokeColor=#82b366;" vertex="1" parent="WIyWlLk6GJQsqaUBKTNV-1">
          <mxGeometry x="100" y="480" width="100" height="40" as="geometry" />
        </mxCell>
        <mxCell id="_3QWsjHC50eAeNGb1wIy-37" value="" style="shape=ext;double=1;rounded=1;whiteSpace=wrap;html=1;" vertex="1" parent="WIyWlLk6GJQsqaUBKTNV-1">
          <mxGeometry x="240" y="340" width="160" height="280" as="geometry" />
        </mxCell>
        <mxCell id="_3QWsjHC50eAeNGb1wIy-38" value="Botdan foydalanish haqida qo&#39;llanma" style="rounded=1;whiteSpace=wrap;html=1;fillColor=#dae8fc;strokeColor=#6c8ebf;" vertex="1" parent="WIyWlLk6GJQsqaUBKTNV-1">
          <mxGeometry x="240" y="478" width="160" height="30" as="geometry" />
        </mxCell>
        <mxCell id="_3QWsjHC50eAeNGb1wIy-42" value="text ko&#39;rinishida" style="rounded=1;whiteSpace=wrap;html=1;fillColor=#d5e8d4;strokeColor=#82b366;" vertex="1" parent="WIyWlLk6GJQsqaUBKTNV-1">
          <mxGeometry x="260" y="519" width="120" height="25" as="geometry" />
        </mxCell>
        <mxCell id="_3QWsjHC50eAeNGb1wIy-44" value="video" style="rounded=1;whiteSpace=wrap;html=1;fillColor=#d5e8d4;strokeColor=#82b366;" vertex="1" parent="WIyWlLk6GJQsqaUBKTNV-1">
          <mxGeometry x="260" y="547" width="120" height="25" as="geometry" />
        </mxCell>
        <mxCell id="_3QWsjHC50eAeNGb1wIy-45" value="ortga" style="rounded=1;whiteSpace=wrap;html=1;fillColor=#d5e8d4;strokeColor=#82b366;" vertex="1" parent="WIyWlLk6GJQsqaUBKTNV-1">
          <mxGeometry x="260" y="575" width="120" height="25" as="geometry" />
        </mxCell>
        <mxCell id="_3QWsjHC50eAeNGb1wIy-46" value="" style="shape=ext;double=1;rounded=1;whiteSpace=wrap;html=1;" vertex="1" parent="WIyWlLk6GJQsqaUBKTNV-1">
          <mxGeometry x="440" y="340" width="160" height="280" as="geometry" />
        </mxCell>
        <mxCell id="_3QWsjHC50eAeNGb1wIy-47" value="picture" style="rounded=1;whiteSpace=wrap;html=1;fillColor=#dae8fc;strokeColor=#6c8ebf;" vertex="1" parent="WIyWlLk6GJQsqaUBKTNV-1">
          <mxGeometry x="440" y="385" width="160" height="95" as="geometry" />
        </mxCell>
        <mxCell id="_3QWsjHC50eAeNGb1wIy-48" value="text" style="rounded=1;whiteSpace=wrap;html=1;fillColor=#e1d5e7;strokeColor=#9673a6;" vertex="1" parent="WIyWlLk6GJQsqaUBKTNV-1">
          <mxGeometry x="441" y="483" width="160" height="100" as="geometry" />
        </mxCell>
        <mxCell id="_3QWsjHC50eAeNGb1wIy-50" value="" style="shape=ext;double=1;rounded=1;whiteSpace=wrap;html=1;" vertex="1" parent="WIyWlLk6GJQsqaUBKTNV-1">
          <mxGeometry x="240" y="36" width="160" height="280" as="geometry" />
        </mxCell>
        <mxCell id="_3QWsjHC50eAeNGb1wIy-51" value="About bot" style="rounded=1;whiteSpace=wrap;html=1;" vertex="1" parent="WIyWlLk6GJQsqaUBKTNV-1">
          <mxGeometry x="260" y="76" width="120" height="100" as="geometry" />
        </mxCell>
        <mxCell id="_3QWsjHC50eAeNGb1wIy-52" value="START" style="rounded=1;whiteSpace=wrap;html=1;fillColor=#dae8fc;strokeColor=#6c8ebf;" vertex="1" parent="WIyWlLk6GJQsqaUBKTNV-1">
          <mxGeometry x="240" y="276" width="160" height="40" as="geometry" />
        </mxCell>
        <mxCell id="_3QWsjHC50eAeNGb1wIy-53" value="" style="shape=ext;double=1;rounded=1;whiteSpace=wrap;html=1;" vertex="1" parent="WIyWlLk6GJQsqaUBKTNV-1">
          <mxGeometry x="640" y="340" width="160" height="280" as="geometry" />
        </mxCell>
        <mxCell id="_3QWsjHC50eAeNGb1wIy-54" value="video" style="rounded=1;whiteSpace=wrap;html=1;fillColor=#1ba1e2;strokeColor=#006EAF;fontColor=#ffffff;" vertex="1" parent="WIyWlLk6GJQsqaUBKTNV-1">
          <mxGeometry x="640" y="398" width="160" height="80" as="geometry" />
        </mxCell>
        <mxCell id="_3QWsjHC50eAeNGb1wIy-55" value="text" style="rounded=1;whiteSpace=wrap;html=1;fillColor=#a20025;fontColor=#ffffff;strokeColor=#6F0000;" vertex="1" parent="WIyWlLk6GJQsqaUBKTNV-1">
          <mxGeometry x="640" y="484" width="160" height="20" as="geometry" />
        </mxCell>
        <mxCell id="_3QWsjHC50eAeNGb1wIy-56" value="newquiz&lt;div&gt;state&lt;/div&gt;" style="shape=ext;double=1;rounded=1;whiteSpace=wrap;html=1;fillColor=#f0a30a;fontColor=#000000;strokeColor=#BD7000;" vertex="1" parent="WIyWlLk6GJQsqaUBKTNV-1">
          <mxGeometry x="10" y="780" width="110" height="80" as="geometry" />
        </mxCell>
        <mxCell id="_3QWsjHC50eAeNGb1wIy-57" value="" style="verticalLabelPosition=bottom;verticalAlign=top;html=1;strokeWidth=2;shape=mxgraph.arrows2.arrow;dy=0.6;dx=40;notch=0;fillColor=#e51400;fontColor=#ffffff;strokeColor=#B20000;" vertex="1" parent="WIyWlLk6GJQsqaUBKTNV-1">
          <mxGeometry x="100" y="800" width="120" height="40" as="geometry" />
        </mxCell>
        <mxCell id="_3QWsjHC50eAeNGb1wIy-58" value="" style="shape=ext;double=1;rounded=1;whiteSpace=wrap;html=1;" vertex="1" parent="WIyWlLk6GJQsqaUBKTNV-1">
          <mxGeometry x="240" y="640" width="160" height="280" as="geometry" />
        </mxCell>
        <mxCell id="_3QWsjHC50eAeNGb1wIy-59" value="" style="shape=ext;double=1;rounded=1;whiteSpace=wrap;html=1;" vertex="1" parent="WIyWlLk6GJQsqaUBKTNV-1">
          <mxGeometry x="440" y="640" width="160" height="280" as="geometry" />
        </mxCell>
        <mxCell id="_3QWsjHC50eAeNGb1wIy-60" value="" style="shape=ext;double=1;rounded=1;whiteSpace=wrap;html=1;" vertex="1" parent="WIyWlLk6GJQsqaUBKTNV-1">
          <mxGeometry x="640" y="640" width="160" height="280" as="geometry" />
        </mxCell>
        <mxCell id="_3QWsjHC50eAeNGb1wIy-61" value="" style="shape=ext;double=1;rounded=1;whiteSpace=wrap;html=1;" vertex="1" parent="WIyWlLk6GJQsqaUBKTNV-1">
          <mxGeometry x="840" y="640" width="160" height="280" as="geometry" />
        </mxCell>
        <mxCell id="_3QWsjHC50eAeNGb1wIy-63" value="title" style="rounded=1;whiteSpace=wrap;html=1;fillColor=#dae8fc;strokeColor=#6c8ebf;gradientColor=#7ea6e0;" vertex="1" parent="WIyWlLk6GJQsqaUBKTNV-1">
          <mxGeometry x="260" y="810" width="120" height="30" as="geometry" />
        </mxCell>
        <mxCell id="_3QWsjHC50eAeNGb1wIy-64" value="|" style="shape=ext;double=1;rounded=1;whiteSpace=wrap;html=1;" vertex="1" parent="WIyWlLk6GJQsqaUBKTNV-1">
          <mxGeometry x="260" y="860" width="120" height="40" as="geometry" />
        </mxCell>
        <mxCell id="_3QWsjHC50eAeNGb1wIy-65" value="file" style="shape=ext;double=1;rounded=1;whiteSpace=wrap;html=1;fillColor=#cce5ff;strokeColor=#36393d;" vertex="1" parent="WIyWlLk6GJQsqaUBKTNV-1">
          <mxGeometry x="460" y="810" width="120" height="35" as="geometry" />
        </mxCell>
        <mxCell id="_3QWsjHC50eAeNGb1wIy-66" value="file" style="shape=ext;double=1;rounded=1;whiteSpace=wrap;html=1;" vertex="1" parent="WIyWlLk6GJQsqaUBKTNV-1">
          <mxGeometry x="480" y="860" width="121" height="60" as="geometry" />
        </mxCell>
        <mxCell id="_3QWsjHC50eAeNGb1wIy-68" value="10" style="rounded=1;whiteSpace=wrap;html=1;" vertex="1" parent="WIyWlLk6GJQsqaUBKTNV-1">
          <mxGeometry x="656" y="856" width="40" height="20" as="geometry" />
        </mxCell>
        <mxCell id="_3QWsjHC50eAeNGb1wIy-69" value="20" style="rounded=1;whiteSpace=wrap;html=1;" vertex="1" parent="WIyWlLk6GJQsqaUBKTNV-1">
          <mxGeometry x="700" y="856" width="40" height="20" as="geometry" />
        </mxCell>
        <mxCell id="_3QWsjHC50eAeNGb1wIy-70" value="30" style="rounded=1;whiteSpace=wrap;html=1;" vertex="1" parent="WIyWlLk6GJQsqaUBKTNV-1">
          <mxGeometry x="744" y="856" width="40" height="20" as="geometry" />
        </mxCell>
        <mxCell id="_3QWsjHC50eAeNGb1wIy-71" value="40" style="rounded=1;whiteSpace=wrap;html=1;" vertex="1" parent="WIyWlLk6GJQsqaUBKTNV-1">
          <mxGeometry x="656" y="880" width="40" height="20" as="geometry" />
        </mxCell>
        <mxCell id="_3QWsjHC50eAeNGb1wIy-72" value="50" style="rounded=1;whiteSpace=wrap;html=1;" vertex="1" parent="WIyWlLk6GJQsqaUBKTNV-1">
          <mxGeometry x="700" y="880" width="40" height="20" as="geometry" />
        </mxCell>
        <mxCell id="_3QWsjHC50eAeNGb1wIy-73" value="60" style="rounded=1;whiteSpace=wrap;html=1;" vertex="1" parent="WIyWlLk6GJQsqaUBKTNV-1">
          <mxGeometry x="744" y="880" width="40" height="20" as="geometry" />
        </mxCell>
        <mxCell id="_3QWsjHC50eAeNGb1wIy-74" value="timer" style="rounded=0;whiteSpace=wrap;html=1;fillColor=#ffff88;strokeColor=#36393d;" vertex="1" parent="WIyWlLk6GJQsqaUBKTNV-1">
          <mxGeometry x="660" y="815" width="124" height="25" as="geometry" />
        </mxCell>
        <mxCell id="_3QWsjHC50eAeNGb1wIy-76" value="quantity" style="rounded=1;whiteSpace=wrap;html=1;fillColor=#cdeb8b;strokeColor=#36393d;" vertex="1" parent="WIyWlLk6GJQsqaUBKTNV-1">
          <mxGeometry x="860" y="820" width="120" height="30" as="geometry" />
        </mxCell>
        <mxCell id="_3QWsjHC50eAeNGb1wIy-77" value="15" style="rounded=1;whiteSpace=wrap;html=1;" vertex="1" parent="WIyWlLk6GJQsqaUBKTNV-1">
          <mxGeometry x="858" y="858" width="40" height="20" as="geometry" />
        </mxCell>
        <mxCell id="_3QWsjHC50eAeNGb1wIy-78" value="20" style="rounded=1;whiteSpace=wrap;html=1;" vertex="1" parent="WIyWlLk6GJQsqaUBKTNV-1">
          <mxGeometry x="900" y="858" width="40" height="20" as="geometry" />
        </mxCell>
        <mxCell id="_3QWsjHC50eAeNGb1wIy-79" value="25" style="rounded=1;whiteSpace=wrap;html=1;" vertex="1" parent="WIyWlLk6GJQsqaUBKTNV-1">
          <mxGeometry x="942" y="858" width="40" height="20" as="geometry" />
        </mxCell>
        <mxCell id="_3QWsjHC50eAeNGb1wIy-80" value="30" style="rounded=1;whiteSpace=wrap;html=1;" vertex="1" parent="WIyWlLk6GJQsqaUBKTNV-1">
          <mxGeometry x="858" y="881" width="40" height="20" as="geometry" />
        </mxCell>
        <mxCell id="_3QWsjHC50eAeNGb1wIy-81" value="40" style="rounded=1;whiteSpace=wrap;html=1;" vertex="1" parent="WIyWlLk6GJQsqaUBKTNV-1">
          <mxGeometry x="900" y="881" width="40" height="20" as="geometry" />
        </mxCell>
        <mxCell id="_3QWsjHC50eAeNGb1wIy-82" value="50" style="rounded=1;whiteSpace=wrap;html=1;" vertex="1" parent="WIyWlLk6GJQsqaUBKTNV-1">
          <mxGeometry x="942" y="881" width="40" height="20" as="geometry" />
        </mxCell>
        <mxCell id="_3QWsjHC50eAeNGb1wIy-83" value="" style="shape=ext;double=1;rounded=1;whiteSpace=wrap;html=1;" vertex="1" parent="WIyWlLk6GJQsqaUBKTNV-1">
          <mxGeometry x="1040" y="640" width="160" height="280" as="geometry" />
        </mxCell>
        <mxCell id="_3QWsjHC50eAeNGb1wIy-85" value="tests" style="shape=ext;double=1;rounded=1;whiteSpace=wrap;html=1;fillColor=#f5f5f5;gradientColor=#b3b3b3;strokeColor=#666666;" vertex="1" parent="WIyWlLk6GJQsqaUBKTNV-1">
          <mxGeometry x="10" y="1080" width="120" height="80" as="geometry" />
        </mxCell>
        <mxCell id="_3QWsjHC50eAeNGb1wIy-86" value="" style="verticalLabelPosition=bottom;verticalAlign=top;html=1;strokeWidth=2;shape=mxgraph.arrows2.arrow;dy=0.6;dx=40;notch=0;fillColor=#dae8fc;gradientColor=#7ea6e0;strokeColor=#6c8ebf;" vertex="1" parent="WIyWlLk6GJQsqaUBKTNV-1">
          <mxGeometry x="110" y="1092.5" width="110" height="55" as="geometry" />
        </mxCell>
        <mxCell id="_3QWsjHC50eAeNGb1wIy-87" value="" style="shape=ext;double=1;rounded=1;whiteSpace=wrap;html=1;" vertex="1" parent="WIyWlLk6GJQsqaUBKTNV-1">
          <mxGeometry x="240" y="961" width="160" height="280" as="geometry" />
        </mxCell>
        <mxCell id="_3QWsjHC50eAeNGb1wIy-88" value="" style="shape=ext;double=1;rounded=1;whiteSpace=wrap;html=1;" vertex="1" parent="WIyWlLk6GJQsqaUBKTNV-1">
          <mxGeometry x="440.5" y="961" width="160" height="280" as="geometry" />
        </mxCell>
        <mxCell id="_3QWsjHC50eAeNGb1wIy-89" value="" style="shape=ext;double=1;rounded=1;whiteSpace=wrap;html=1;" vertex="1" parent="WIyWlLk6GJQsqaUBKTNV-1">
          <mxGeometry x="640" y="961" width="160" height="280" as="geometry" />
        </mxCell>
        <mxCell id="_3QWsjHC50eAeNGb1wIy-90" value="" style="shape=ext;double=1;rounded=1;whiteSpace=wrap;html=1;" vertex="1" parent="WIyWlLk6GJQsqaUBKTNV-1">
          <mxGeometry x="840" y="961" width="160" height="280" as="geometry" />
        </mxCell>
        <mxCell id="_3QWsjHC50eAeNGb1wIy-91" value="" style="shape=ext;double=1;rounded=1;whiteSpace=wrap;html=1;" vertex="1" parent="WIyWlLk6GJQsqaUBKTNV-1">
          <mxGeometry x="1040" y="961" width="160" height="280" as="geometry" />
        </mxCell>
        <mxCell id="_3QWsjHC50eAeNGb1wIy-92" value="test1" style="shape=ext;double=1;rounded=1;whiteSpace=wrap;html=1;" vertex="1" parent="WIyWlLk6GJQsqaUBKTNV-1">
          <mxGeometry x="260" y="1065" width="120" height="27.5" as="geometry" />
        </mxCell>
        <mxCell id="_3QWsjHC50eAeNGb1wIy-93" value="..." style="shape=ext;double=1;rounded=1;whiteSpace=wrap;html=1;" vertex="1" parent="WIyWlLk6GJQsqaUBKTNV-1">
          <mxGeometry x="260" y="1092.5" width="120" height="27.5" as="geometry" />
        </mxCell>
        <mxCell id="_3QWsjHC50eAeNGb1wIy-94" value="&lt;span style=&quot;color: rgb(0, 0, 0); font-family: Helvetica; font-size: 12px; font-style: normal; font-variant-ligatures: normal; font-variant-caps: normal; font-weight: 400; letter-spacing: normal; orphans: 2; text-align: center; text-indent: 0px; text-transform: none; widows: 2; word-spacing: 0px; -webkit-text-stroke-width: 0px; white-space: normal; background-color: rgb(251, 251, 251); text-decoration-thickness: initial; text-decoration-style: initial; text-decoration-color: initial; display: inline !important; float: none;&quot;&gt;...&lt;/span&gt;" style="shape=ext;double=1;rounded=1;whiteSpace=wrap;html=1;" vertex="1" parent="WIyWlLk6GJQsqaUBKTNV-1">
          <mxGeometry x="260" y="1120" width="120" height="27.5" as="geometry" />
        </mxCell>
        <mxCell id="_3QWsjHC50eAeNGb1wIy-95" value="..." style="shape=ext;double=1;rounded=1;whiteSpace=wrap;html=1;" vertex="1" parent="WIyWlLk6GJQsqaUBKTNV-1">
          <mxGeometry x="260" y="1147.5" width="120" height="27.5" as="geometry" />
        </mxCell>
        <mxCell id="_3QWsjHC50eAeNGb1wIy-96" value="test5" style="shape=ext;double=1;rounded=1;whiteSpace=wrap;html=1;" vertex="1" parent="WIyWlLk6GJQsqaUBKTNV-1">
          <mxGeometry x="260" y="1175" width="120" height="27.5" as="geometry" />
        </mxCell>
        <mxCell id="_3QWsjHC50eAeNGb1wIy-97" value="&amp;lt;-" style="shape=ext;double=1;rounded=1;whiteSpace=wrap;html=1;" vertex="1" parent="WIyWlLk6GJQsqaUBKTNV-1">
          <mxGeometry x="258" y="1202.5" width="40" height="27.5" as="geometry" />
        </mxCell>
        <mxCell id="_3QWsjHC50eAeNGb1wIy-98" value="n" style="shape=ext;double=1;rounded=1;whiteSpace=wrap;html=1;" vertex="1" parent="WIyWlLk6GJQsqaUBKTNV-1">
          <mxGeometry x="300" y="1202.5" width="40" height="27.5" as="geometry" />
        </mxCell>
        <mxCell id="_3QWsjHC50eAeNGb1wIy-99" value="-&amp;gt;" style="shape=ext;double=1;rounded=1;whiteSpace=wrap;html=1;" vertex="1" parent="WIyWlLk6GJQsqaUBKTNV-1">
          <mxGeometry x="342" y="1202.5" width="40" height="27.5" as="geometry" />
        </mxCell>
        <mxCell id="_3QWsjHC50eAeNGb1wIy-100" value="test" style="shape=ext;double=1;rounded=1;whiteSpace=wrap;html=1;" vertex="1" parent="WIyWlLk6GJQsqaUBKTNV-1">
          <mxGeometry x="461" y="981" width="119" height="39" as="geometry" />
        </mxCell>
        <mxCell id="_3QWsjHC50eAeNGb1wIy-102" value="test" style="shape=ext;double=1;rounded=1;whiteSpace=wrap;html=1;" vertex="1" parent="WIyWlLk6GJQsqaUBKTNV-1">
          <mxGeometry x="460" y="1058.25" width="119" height="41" as="geometry" />
        </mxCell>
        <mxCell id="_3QWsjHC50eAeNGb1wIy-103" value="test" style="shape=ext;double=1;rounded=1;whiteSpace=wrap;html=1;" vertex="1" parent="WIyWlLk6GJQsqaUBKTNV-1">
          <mxGeometry x="460" y="1131" width="119" height="44" as="geometry" />
        </mxCell>
        <mxCell id="_3QWsjHC50eAeNGb1wIy-105" value="delete" style="rounded=1;whiteSpace=wrap;html=1;" vertex="1" parent="WIyWlLk6GJQsqaUBKTNV-1">
          <mxGeometry x="460" y="1200" width="60" height="30" as="geometry" />
        </mxCell>
        <mxCell id="_3QWsjHC50eAeNGb1wIy-106" value="boshlash" style="rounded=1;whiteSpace=wrap;html=1;" vertex="1" parent="WIyWlLk6GJQsqaUBKTNV-1">
          <mxGeometry x="461" y="1020" width="60" height="20" as="geometry" />
        </mxCell>
        <mxCell id="_3QWsjHC50eAeNGb1wIy-107" value="ulashish" style="rounded=1;whiteSpace=wrap;html=1;" vertex="1" parent="WIyWlLk6GJQsqaUBKTNV-1">
          <mxGeometry x="520" y="1020" width="60" height="20" as="geometry" />
        </mxCell>
        <mxCell id="_3QWsjHC50eAeNGb1wIy-108" value="&lt;span style=&quot;color: rgb(0, 0, 0); font-family: Helvetica; font-size: 12px; font-style: normal; font-variant-ligatures: normal; font-variant-caps: normal; font-weight: 400; letter-spacing: normal; orphans: 2; text-align: center; text-indent: 0px; text-transform: none; widows: 2; word-spacing: 0px; -webkit-text-stroke-width: 0px; white-space: normal; background-color: rgb(251, 251, 251); text-decoration-thickness: initial; text-decoration-style: initial; text-decoration-color: initial; display: inline !important; float: none;&quot;&gt;boshlash&lt;/span&gt;" style="rounded=1;whiteSpace=wrap;html=1;" vertex="1" parent="WIyWlLk6GJQsqaUBKTNV-1">
          <mxGeometry x="460" y="1099.25" width="60" height="20" as="geometry" />
        </mxCell>
        <mxCell id="_3QWsjHC50eAeNGb1wIy-109" value="ulashish" style="rounded=1;whiteSpace=wrap;html=1;" vertex="1" parent="WIyWlLk6GJQsqaUBKTNV-1">
          <mxGeometry x="520" y="1099.25" width="60" height="20" as="geometry" />
        </mxCell>
        <mxCell id="_3QWsjHC50eAeNGb1wIy-110" value="&lt;span style=&quot;color: rgb(0, 0, 0); font-family: Helvetica; font-size: 12px; font-style: normal; font-variant-ligatures: normal; font-variant-caps: normal; font-weight: 400; letter-spacing: normal; orphans: 2; text-align: center; text-indent: 0px; text-transform: none; widows: 2; word-spacing: 0px; -webkit-text-stroke-width: 0px; white-space: normal; background-color: rgb(251, 251, 251); text-decoration-thickness: initial; text-decoration-style: initial; text-decoration-color: initial; display: inline !important; float: none;&quot;&gt;boshlash&lt;/span&gt;" style="rounded=1;whiteSpace=wrap;html=1;" vertex="1" parent="WIyWlLk6GJQsqaUBKTNV-1">
          <mxGeometry x="461" y="1175" width="60" height="20" as="geometry" />
        </mxCell>
        <mxCell id="_3QWsjHC50eAeNGb1wIy-111" value="ulashish" style="rounded=1;whiteSpace=wrap;html=1;" vertex="1" parent="WIyWlLk6GJQsqaUBKTNV-1">
          <mxGeometry x="520" y="1175" width="60" height="20" as="geometry" />
        </mxCell>
        <mxCell id="_3QWsjHC50eAeNGb1wIy-112" value="back" style="rounded=1;whiteSpace=wrap;html=1;" vertex="1" parent="WIyWlLk6GJQsqaUBKTNV-1">
          <mxGeometry x="521" y="1200" width="60" height="30" as="geometry" />
        </mxCell>
        <mxCell id="_3QWsjHC50eAeNGb1wIy-113" value="text" style="rounded=1;whiteSpace=wrap;html=1;" vertex="1" parent="WIyWlLk6GJQsqaUBKTNV-1">
          <mxGeometry x="659" y="145" width="120" height="40" as="geometry" />
        </mxCell>
        <mxCell id="_3QWsjHC50eAeNGb1wIy-114" value="text" style="rounded=1;whiteSpace=wrap;html=1;" vertex="1" parent="WIyWlLk6GJQsqaUBKTNV-1">
          <mxGeometry x="860" y="195" width="120" height="30" as="geometry" />
        </mxCell>
        <mxCell id="_3QWsjHC50eAeNGb1wIy-115" value="change language" style="shape=ext;double=1;rounded=1;whiteSpace=wrap;html=1;fillColor=#fff2cc;gradientColor=#ffd966;strokeColor=#d6b656;" vertex="1" parent="WIyWlLk6GJQsqaUBKTNV-1">
          <mxGeometry x="5" y="1380" width="120" height="80" as="geometry" />
        </mxCell>
        <mxCell id="_3QWsjHC50eAeNGb1wIy-116" value="" style="verticalLabelPosition=bottom;verticalAlign=top;html=1;strokeWidth=2;shape=mxgraph.arrows2.arrow;dy=0.6;dx=40;notch=0;fillColor=#d5e8d4;gradientColor=#97d077;strokeColor=#82b366;" vertex="1" parent="WIyWlLk6GJQsqaUBKTNV-1">
          <mxGeometry x="115" y="1402.5" width="85" height="35" as="geometry" />
        </mxCell>
        <mxCell id="_3QWsjHC50eAeNGb1wIy-117" value="" style="shape=ext;double=1;rounded=1;whiteSpace=wrap;html=1;" vertex="1" parent="WIyWlLk6GJQsqaUBKTNV-1">
          <mxGeometry x="240" y="1280" width="160" height="280" as="geometry" />
        </mxCell>
        <mxCell id="_3QWsjHC50eAeNGb1wIy-118" value="Uzbek" style="rounded=1;whiteSpace=wrap;html=1;fillColor=#d5e8d4;strokeColor=#82b366;" vertex="1" parent="WIyWlLk6GJQsqaUBKTNV-1">
          <mxGeometry x="262" y="1452.5" width="120" height="30" as="geometry" />
        </mxCell>
        <mxCell id="_3QWsjHC50eAeNGb1wIy-119" value="Russian" style="rounded=1;whiteSpace=wrap;html=1;fillColor=#dae8fc;strokeColor=#6c8ebf;" vertex="1" parent="WIyWlLk6GJQsqaUBKTNV-1">
          <mxGeometry x="262" y="1485.5" width="120" height="30" as="geometry" />
        </mxCell>
        <mxCell id="_3QWsjHC50eAeNGb1wIy-120" value="English" style="rounded=1;whiteSpace=wrap;html=1;fillColor=#fff2cc;strokeColor=#d6b656;" vertex="1" parent="WIyWlLk6GJQsqaUBKTNV-1">
          <mxGeometry x="262" y="1518.5" width="120" height="30" as="geometry" />
        </mxCell>
        <mxCell id="_3QWsjHC50eAeNGb1wIy-121" value="text" style="rounded=1;whiteSpace=wrap;html=1;" vertex="1" parent="WIyWlLk6GJQsqaUBKTNV-1">
          <mxGeometry x="261" y="1402.5" width="120" height="40" as="geometry" />
        </mxCell>
        <mxCell id="_3QWsjHC50eAeNGb1wIy-123" value="" style="shape=ext;double=1;rounded=1;whiteSpace=wrap;html=1;" vertex="1" parent="WIyWlLk6GJQsqaUBKTNV-1">
          <mxGeometry x="439" y="1280" width="160" height="280" as="geometry" />
        </mxCell>
        <mxCell id="_3QWsjHC50eAeNGb1wIy-125" value="&lt;font style=&quot;font-size: 6px;&quot;&gt;instruction&lt;/font&gt;" style="rounded=1;whiteSpace=wrap;html=1;spacingBottom=10;spacingTop=10;fillColor=#fff2cc;strokeColor=#d6b656;" vertex="1" parent="WIyWlLk6GJQsqaUBKTNV-1">
          <mxGeometry x="461" y="1481.5" width="60" height="20" as="geometry" />
        </mxCell>
        <mxCell id="_3QWsjHC50eAeNGb1wIy-126" value="&lt;font style=&quot;font-size: 6px;&quot;&gt;newquiz&lt;/font&gt;" style="rounded=1;whiteSpace=wrap;html=1;spacingBottom=10;spacingTop=10;fillColor=#fff2cc;strokeColor=#d6b656;" vertex="1" parent="WIyWlLk6GJQsqaUBKTNV-1">
          <mxGeometry x="526" y="1481.5" width="60" height="20" as="geometry" />
        </mxCell>
        <mxCell id="_3QWsjHC50eAeNGb1wIy-127" value="&lt;font style=&quot;font-size: 6px;&quot;&gt;tests&lt;/font&gt;" style="rounded=1;whiteSpace=wrap;html=1;spacingTop=0;spacingBottom=10;spacingRight=0;verticalAlign=top;fillColor=#fff2cc;strokeColor=#d6b656;" vertex="1" parent="WIyWlLk6GJQsqaUBKTNV-1">
          <mxGeometry x="461" y="1504.5" width="60" height="20" as="geometry" />
        </mxCell>
        <mxCell id="_3QWsjHC50eAeNGb1wIy-128" value="&lt;font style=&quot;font-size: 6px;&quot;&gt;change language&lt;/font&gt;" style="rounded=1;whiteSpace=wrap;html=1;fillColor=#fff2cc;strokeColor=#d6b656;" vertex="1" parent="WIyWlLk6GJQsqaUBKTNV-1">
          <mxGeometry x="526" y="1504.5" width="60" height="20" as="geometry" />
        </mxCell>
        <mxCell id="_3QWsjHC50eAeNGb1wIy-129" value="text" style="rounded=1;whiteSpace=wrap;html=1;" vertex="1" parent="WIyWlLk6GJQsqaUBKTNV-1">
          <mxGeometry x="461" y="1442.5" width="120" height="30" as="geometry" />
        </mxCell>
        <mxCell id="_3QWsjHC50eAeNGb1wIy-130" value="&lt;font style=&quot;font-size: 6px;&quot;&gt;instruction&lt;/font&gt;" style="rounded=1;whiteSpace=wrap;html=1;spacingBottom=10;spacingTop=10;fillColor=#fff2cc;strokeColor=#d6b656;" vertex="1" parent="WIyWlLk6GJQsqaUBKTNV-1">
          <mxGeometry x="1257.5" y="838" width="60" height="20" as="geometry" />
        </mxCell>
        <mxCell id="_3QWsjHC50eAeNGb1wIy-131" value="&lt;font style=&quot;font-size: 6px;&quot;&gt;newquiz&lt;/font&gt;" style="rounded=1;whiteSpace=wrap;html=1;spacingBottom=10;spacingTop=10;fillColor=#fff2cc;strokeColor=#d6b656;" vertex="1" parent="WIyWlLk6GJQsqaUBKTNV-1">
          <mxGeometry x="1322.5" y="838" width="60" height="20" as="geometry" />
        </mxCell>
        <mxCell id="_3QWsjHC50eAeNGb1wIy-132" value="&lt;font style=&quot;font-size: 6px;&quot;&gt;tests&lt;/font&gt;" style="rounded=1;whiteSpace=wrap;html=1;spacingTop=0;spacingBottom=10;spacingRight=0;verticalAlign=top;fillColor=#fff2cc;strokeColor=#d6b656;" vertex="1" parent="WIyWlLk6GJQsqaUBKTNV-1">
          <mxGeometry x="1257.5" y="861" width="60" height="20" as="geometry" />
        </mxCell>
        <mxCell id="_3QWsjHC50eAeNGb1wIy-133" value="&lt;font style=&quot;font-size: 6px;&quot;&gt;change language&lt;/font&gt;" style="rounded=1;whiteSpace=wrap;html=1;fillColor=#fff2cc;strokeColor=#d6b656;" vertex="1" parent="WIyWlLk6GJQsqaUBKTNV-1">
          <mxGeometry x="1322.5" y="861" width="60" height="20" as="geometry" />
        </mxCell>
        <mxCell id="_3QWsjHC50eAeNGb1wIy-134" value="text" style="rounded=1;whiteSpace=wrap;html=1;" vertex="1" parent="WIyWlLk6GJQsqaUBKTNV-1">
          <mxGeometry x="1262.5" y="796" width="120" height="30" as="geometry" />
        </mxCell>
        <mxCell id="_3QWsjHC50eAeNGb1wIy-135" value="starting" style="shape=ext;double=1;rounded=1;whiteSpace=wrap;html=1;fillColor=#d5e8d4;gradientColor=#97d077;strokeColor=#82b366;" vertex="1" parent="WIyWlLk6GJQsqaUBKTNV-1">
          <mxGeometry x="10" y="145" width="120" height="80" as="geometry" />
        </mxCell>
        <mxCell id="_3QWsjHC50eAeNGb1wIy-136" value="" style="verticalLabelPosition=bottom;verticalAlign=top;html=1;strokeWidth=2;shape=mxgraph.arrows2.arrow;dy=0.6;dx=40;notch=0;fillColor=#dae8fc;gradientColor=#7ea6e0;strokeColor=#6c8ebf;" vertex="1" parent="WIyWlLk6GJQsqaUBKTNV-1">
          <mxGeometry x="115" y="165" width="100" height="40" as="geometry" />
        </mxCell>
      </root>
    </mxGraphModel>
  </diagram>
  <diagram id="ulv8ybglKhOW_I0YrjLL" name="Page-2">
    <mxGraphModel dx="1434" dy="843" grid="1" gridSize="20" guides="1" tooltips="1" connect="1" arrows="1" fold="1" page="1" pageScale="1" pageWidth="1169" pageHeight="827" math="0" shadow="0">
      <root>
        <mxCell id="0" />
        <mxCell id="1" parent="0" />
        <mxCell id="fK5vea_OGSKQvVOe2cyd-1" value="" style="shape=ext;double=1;rounded=1;whiteSpace=wrap;html=1;" vertex="1" parent="1">
          <mxGeometry x="240" y="36" width="160" height="280" as="geometry" />
        </mxCell>
        <mxCell id="-AuhH7usP13x4RQFofp0-1" value="starting" style="shape=ext;double=1;rounded=1;whiteSpace=wrap;html=1;fillColor=#d5e8d4;gradientColor=#97d077;strokeColor=#82b366;" vertex="1" parent="1">
          <mxGeometry x="10" y="145" width="120" height="80" as="geometry" />
        </mxCell>
        <mxCell id="-AuhH7usP13x4RQFofp0-2" value="" style="verticalLabelPosition=bottom;verticalAlign=top;html=1;strokeWidth=2;shape=mxgraph.arrows2.arrow;dy=0.6;dx=40;notch=0;fillColor=#dae8fc;gradientColor=#7ea6e0;strokeColor=#6c8ebf;" vertex="1" parent="1">
          <mxGeometry x="115" y="165" width="100" height="40" as="geometry" />
        </mxCell>
      </root>
    </mxGraphModel>
  </diagram>
</mxfile>
